<svg width="184" height="27" viewBox="0 0 184 27" xmlns="http://www.w3.org/2000/svg">
    <defs>
        <linearGradient x1="30.513%" y1="13.855%" x2="70.982%" y2="36.074%" id="a">
            <stop stop-color="#D8D8D8" offset="0%"/>
            <stop stop-color="#9E9E9E" offset="100%"/>
            <stop stop-color="#9E9E9E" offset="100%"/>
        </linearGradient>
    </defs>
    <g fill="none" fill-rule="evenodd">
        <text fill="#FAF5F1" fill-rule="nonzero" font-family="mplus-1c-regular, M+ 1c" font-size="18">
                    <tspan x="30" y="20">澄思整合設計</tspan>
                </text>
        <path d="m9.162 6.422 1.344.501v4.428a.873.873 0 0 1-.318.599c-.192.166-.534.354-1.026.565V6.422z" fill="#D8D8D8"/>
        <path d="M4.698 10.356c2.997 1.459 4.8 2.553 5.41 3.284.913 1.095-.281 4.504.263 4.245.363-.172.967-1.944 1.81-5.314L7.24 9.954a2.052 2.052 0 0 0-2.101.108l-.44.294z" fill="url(#a)" transform="translate(5.22 3.78)"/>
        <path d="M7.704 5.411c.41 0 .815.102 1.176.297l7.538 4.053a2.484 2.484 0 0 1 1.306 2.254l-.23 8.637a2.484 2.484 0 0 1-3.725 2.086L6.462 18.52a2.484 2.484 0 0 1-1.242-2.152V7.895a2.484 2.484 0 0 1 2.484-2.484zm-.162 1.804a.432.432 0 0 0-.432.432v8.861c0 .154.082.297.216.374l6.614 3.828a1.134 1.134 0 0 0 1.702-.951l.167-6.293a2.97 2.97 0 0 0-1.559-2.693L7.747 7.267a.432.432 0 0 0-.205-.052z" fill="#D8D8D8"/>
        <path d="m21.592 17.95-.01.273v2.7c0 .807-1.188 1.879-2.536 2.159.337-.263.523-.672.557-1.226l.006-.19v-2.55c.483-.164.888-.325 1.216-.482.247-.12.503-.347.767-.683zm-7.266 2.684 2.314 1.885c-.615-.412-1.386-1.04-2.314-1.885zM12.128 3.78c.355 0 .705.081 1.024.238l7.327 3.599a2.484 2.484 0 0 1 1.387 2.314l-.188 5.515c-.278.349-.65.671-1.115.967-.252.16-.57.328-.953.503l-.001-5.462a2.97 2.97 0 0 0-1.448-2.55l-.172-.095-7.801-3.983a2.32 2.32 0 0 1 1.94-1.046z" fill="#D8D8D8"/>
        <text fill="#FAF5F1" fill-rule="nonzero" font-family="DecoTypeNaskh, DecoType Naskh" font-size="18">
                    <tspan x="156.187" y="26"> </tspan>
                    <tspan x="143" y="26.228" font-family="LucidaGrande, Lucida Grande">kDG</tspan>
                </text>
    </g>
</svg>
